<svg width="685" height="136" viewBox="0 0 685 136" fill="none" xmlns="http://www.w3.org/2000/svg">
<circle cx="50" cy="86" r="42.5" stroke="#34113F" stroke-width="15"/>
<circle cx="84" cy="50" r="42.5" stroke="#C8F97E" stroke-width="15"/>
<circle cx="115" cy="86" r="42.5" stroke="#EDF1FF" stroke-width="15"/>
<path d="M227.994 84.5459C227.994 86.4258 227.75 88.1226 227.261 89.6362C226.797 91.1255 226.175 92.4438 225.394 93.5913C224.612 94.7388 223.697 95.7153 222.647 96.521C221.597 97.3267 220.511 97.9858 219.388 98.4985C218.265 99.0112 217.117 99.3896 215.945 99.6338C214.798 99.8779 213.711 100 212.686 100H175.955V90.4785H212.686C214.517 90.4785 215.933 89.9414 216.934 88.8672C217.959 87.793 218.472 86.3525 218.472 84.5459C218.472 83.667 218.338 82.8613 218.069 82.1289C217.801 81.3965 217.41 80.7617 216.897 80.2246C216.409 79.6875 215.799 79.2725 215.066 78.9795C214.358 78.6865 213.565 78.54 212.686 78.54H190.787C189.249 78.54 187.588 78.2715 185.806 77.7344C184.024 77.1729 182.364 76.2817 180.826 75.061C179.312 73.8403 178.042 72.2412 177.017 70.2637C176.016 68.2861 175.516 65.8691 175.516 63.0127C175.516 60.1562 176.016 57.7515 177.017 55.7983C178.042 53.8208 179.312 52.2217 180.826 51.001C182.364 49.7559 184.024 48.8647 185.806 48.3276C187.588 47.7661 189.249 47.4854 190.787 47.4854H223.196V57.0068H190.787C188.98 57.0068 187.564 57.5562 186.539 58.6548C185.538 59.7534 185.037 61.2061 185.037 63.0127C185.037 64.8438 185.538 66.2964 186.539 67.3706C187.564 68.4204 188.98 68.9453 190.787 68.9453H212.686H212.759C213.785 68.9697 214.871 69.1162 216.019 69.3848C217.166 69.6289 218.301 70.0195 219.424 70.5566C220.572 71.0938 221.658 71.7773 222.684 72.6074C223.709 73.4131 224.612 74.3896 225.394 75.5371C226.199 76.6846 226.834 78.0029 227.298 79.4922C227.762 80.9814 227.994 82.666 227.994 84.5459ZM277.908 86.6333C277.908 88.269 277.701 89.7461 277.286 91.0645C276.871 92.3584 276.321 93.5059 275.638 94.5068C274.954 95.4834 274.161 96.3257 273.257 97.0337C272.354 97.7173 271.402 98.2788 270.401 98.7183C269.424 99.1577 268.423 99.4873 267.398 99.707C266.397 99.9023 265.445 100 264.542 100H247.366C246.048 100 244.607 99.7681 243.045 99.3042C241.482 98.8403 240.03 98.0835 238.687 97.0337C237.369 95.9595 236.258 94.5801 235.354 92.8955C234.476 91.1865 234.036 89.0991 234.036 86.6333V73.7427C234.036 71.3013 234.476 69.2383 235.354 67.5537C236.258 65.8447 237.369 64.4653 238.687 63.4155C240.03 62.3413 241.482 61.5723 243.045 61.1084C244.607 60.6445 246.048 60.4126 247.366 60.4126H264.542C266.983 60.4126 269.058 60.8521 270.767 61.731C272.476 62.6099 273.855 63.7207 274.905 65.0635C275.955 66.3818 276.712 67.8223 277.176 69.3848C277.664 70.9473 277.908 72.3999 277.908 73.7427V86.6333ZM268.387 73.8159C268.387 72.4976 268.057 71.521 267.398 70.8862C266.739 70.2515 265.787 69.9341 264.542 69.9341H247.439C246.17 69.9341 245.206 70.2637 244.546 70.9229C243.887 71.5576 243.558 72.4976 243.558 73.7427V86.6333C243.558 87.8784 243.887 88.8306 244.546 89.4897C245.206 90.1489 246.17 90.4785 247.439 90.4785H264.542C265.835 90.4785 266.8 90.1489 267.435 89.4897C268.069 88.8306 268.387 87.8784 268.387 86.6333V73.8159ZM324.38 100H298.562C297.244 100 295.804 99.7681 294.241 99.3042C292.679 98.8403 291.226 98.0835 289.883 97.0337C288.565 95.9595 287.454 94.5801 286.551 92.8955C285.672 91.1865 285.232 89.0991 285.232 86.6333V73.7427C285.232 72.8394 285.33 71.8872 285.525 70.8862C285.745 69.8853 286.075 68.8965 286.514 67.9199C286.954 66.9189 287.515 65.9668 288.199 65.0635C288.907 64.1602 289.749 63.3667 290.726 62.6831C291.727 61.9995 292.874 61.4502 294.168 61.0352C295.462 60.6201 296.927 60.4126 298.562 60.4126H324.38V69.9341H298.562C297.317 69.9341 296.365 70.2515 295.706 70.8862C295.071 71.521 294.754 72.4976 294.754 73.8159V86.6333C294.754 87.8784 295.083 88.8306 295.743 89.4897C296.402 90.1489 297.366 90.4785 298.636 90.4785H324.38V100ZM341.922 52.2827H332.4V43.6768H341.922V52.2827ZM341.922 100H332.4V60.4126H341.922V100ZM391.946 86.8896C391.946 88.208 391.714 89.6362 391.25 91.1743C390.787 92.688 390.03 94.104 388.98 95.4224C387.955 96.7163 386.6 97.8027 384.915 98.6816C383.255 99.5605 381.229 100 378.836 100H361.661C360.342 100 358.914 99.7681 357.376 99.3042C355.862 98.8403 354.446 98.0957 353.128 97.0703C351.834 96.0205 350.748 94.6655 349.869 93.0054C348.99 91.3208 348.55 89.2822 348.55 86.8896C348.55 85.5713 348.782 84.1431 349.246 82.605C349.71 81.0669 350.455 79.6509 351.48 78.3569C352.53 77.0386 353.885 75.9399 355.545 75.061C357.229 74.1821 359.268 73.7427 361.661 73.7427H378.836V82.8247H361.661C360.367 82.8247 359.366 83.2275 358.658 84.0332C357.95 84.8145 357.596 85.791 357.596 86.9629C357.596 88.208 357.999 89.1846 358.804 89.8926C359.634 90.5762 360.611 90.918 361.734 90.918H378.836C380.13 90.918 381.131 90.5273 381.839 89.7461C382.547 88.9648 382.901 87.9883 382.901 86.8164V73.5229C382.901 72.2778 382.51 71.2891 381.729 70.5566C380.972 69.8242 380.008 69.458 378.836 69.458H357.925V60.4126H378.836C380.154 60.4126 381.57 60.6445 383.084 61.1084C384.622 61.5723 386.038 62.3291 387.332 63.3789C388.65 64.4043 389.749 65.7593 390.628 67.4438C391.507 69.104 391.946 71.1304 391.946 73.5229V86.8896ZM417.471 100H413.223C411.856 100 410.391 99.7681 408.829 99.3042C407.291 98.8403 405.85 98.0835 404.507 97.0337C403.165 95.9595 402.054 94.5801 401.175 92.8955C400.296 91.1865 399.856 89.0991 399.856 86.6333V43.6768H409.378V86.6333C409.378 87.8052 409.744 88.7451 410.477 89.4531C411.209 90.1367 412.125 90.4785 413.223 90.4785H417.471V100ZM471.67 100H437.32C436.441 100 435.489 99.9023 434.463 99.707C433.462 99.4873 432.461 99.1577 431.46 98.7183C430.484 98.2788 429.544 97.7173 428.641 97.0337C427.737 96.3257 426.932 95.4834 426.224 94.5068C425.54 93.5059 424.991 92.3584 424.576 91.0645C424.161 89.7461 423.953 88.269 423.953 86.6333V60.8521C423.953 59.9731 424.051 59.0332 424.246 58.0322C424.466 57.0068 424.795 56.0059 425.235 55.0293C425.674 54.0283 426.248 53.0762 426.956 52.1729C427.664 51.2695 428.506 50.4761 429.483 49.7925C430.484 49.0845 431.631 48.5229 432.925 48.1079C434.219 47.6929 435.684 47.4854 437.32 47.4854H471.67V57.0068H437.32C436.075 57.0068 435.123 57.3364 434.463 57.9956C433.804 58.6548 433.475 59.6313 433.475 60.9253V86.6333C433.475 87.854 433.804 88.8062 434.463 89.4897C435.147 90.1489 436.099 90.4785 437.32 90.4785H471.67V100ZM489.285 52.2827H479.764V43.6768H489.285V52.2827ZM489.285 100H479.764V60.4126H489.285V100ZM533.084 69.9341H511.661C510.367 69.9341 509.39 70.2637 508.731 70.9229C508.072 71.5576 507.742 72.4976 507.742 73.7427V100H498.221V73.7427C498.221 72.1069 498.428 70.6421 498.843 69.3481C499.258 68.0542 499.808 66.9189 500.491 65.9424C501.199 64.9414 502.005 64.0991 502.908 63.4155C503.812 62.7075 504.751 62.1338 505.728 61.6943C506.729 61.2549 507.73 60.9375 508.731 60.7422C509.756 60.5225 510.708 60.4126 511.587 60.4126H533.084V69.9341ZM577.579 100H551.761C550.442 100 549.002 99.7681 547.439 99.3042C545.877 98.8403 544.424 98.0835 543.082 97.0337C541.763 95.9595 540.652 94.5801 539.749 92.8955C538.87 91.1865 538.431 89.0991 538.431 86.6333V73.7427C538.431 72.8394 538.528 71.8872 538.724 70.8862C538.943 69.8853 539.273 68.8965 539.712 67.9199C540.152 66.9189 540.713 65.9668 541.397 65.0635C542.105 64.1602 542.947 63.3667 543.924 62.6831C544.925 61.9995 546.072 61.4502 547.366 61.0352C548.66 60.6201 550.125 60.4126 551.761 60.4126H577.579V69.9341H551.761C550.516 69.9341 549.563 70.2515 548.904 70.8862C548.27 71.521 547.952 72.4976 547.952 73.8159V86.6333C547.952 87.8784 548.282 88.8306 548.941 89.4897C549.6 90.1489 550.564 90.4785 551.834 90.4785H577.579V100ZM602.847 100H598.599C597.232 100 595.767 99.7681 594.205 99.3042C592.667 98.8403 591.226 98.0835 589.883 97.0337C588.541 95.9595 587.43 94.5801 586.551 92.8955C585.672 91.1865 585.232 89.0991 585.232 86.6333V43.6768H594.754V86.6333C594.754 87.8052 595.12 88.7451 595.853 89.4531C596.585 90.1367 597.5 90.4785 598.599 90.4785H602.847V100ZM651.553 73.5229C651.553 74.8413 651.321 76.2695 650.857 77.8076C650.394 79.3213 649.637 80.7373 648.587 82.0557C647.562 83.3496 646.207 84.436 644.522 85.3149C642.862 86.1938 640.835 86.6333 638.443 86.6333H621.268V77.5879H638.443C639.737 77.5879 640.738 77.1973 641.446 76.416C642.154 75.6104 642.508 74.6216 642.508 73.4497C642.508 72.2046 642.105 71.228 641.299 70.52C640.518 69.812 639.566 69.458 638.443 69.458H621.268C619.974 69.458 618.973 69.8608 618.265 70.6665C617.557 71.4478 617.203 72.4243 617.203 73.5962V86.8896C617.203 88.1592 617.593 89.1479 618.375 89.856C619.18 90.564 620.169 90.918 621.341 90.918H638.443V100H621.268C619.949 100 618.521 99.7681 616.983 99.3042C615.469 98.8403 614.053 98.0957 612.735 97.0703C611.441 96.0205 610.354 94.6655 609.476 93.0054C608.597 91.3208 608.157 89.2822 608.157 86.8896V73.5229C608.157 72.2046 608.389 70.7886 608.853 69.2749C609.317 67.7368 610.062 66.3208 611.087 65.0269C612.137 63.7085 613.492 62.6099 615.152 61.731C616.836 60.8521 618.875 60.4126 621.268 60.4126H638.443C639.761 60.4126 641.177 60.6445 642.691 61.1084C644.229 61.5723 645.645 62.3291 646.939 63.3789C648.257 64.4043 649.356 65.7593 650.235 67.4438C651.114 69.104 651.553 71.1304 651.553 73.5229Z" fill="black"/>
</svg>
